# xmcd CD database file
#
# Track frame offsets:
#	150
#	19120
#	54332
#	72132
#	106692
#	164900
#	200090
#	232525
#	244292
#
# Disc length: 3595 seconds
#
# Revision: 0
# Processed by: cddbd v1.4PL0 Copyright (c) Steve Scherf et al.
# Submitted via: CDex 1.50
#
DISCID=710e0909
DTITLE=Buddy Guy - The Real Deal
DYEAR=1996
DGENRE=Blues
TTITLE0=I've Got My Eyes On You
TTITLE1=Sweet Black Angel (Black Angel Blues)
TTITLE2=Talk To Me Baby
TTITLE3=My Time After A While
TTITLE4=I've Got News For You
TTITLE5=Damn Right I've Got The Blues
TTITLE6=First Time I Met The Blues
TTITLE7=Ain't That Lovin' You
TTITLE8=Let Me Love You Baby
EXTD=YEAR: 1996
EXTT0=
EXTT1=
EXTT2=
EXTT3=
EXTT4=
EXTT5=
EXTT6=
EXTT7=
EXTT8=
PLAYORDER=
